<svg width="137" height="73" viewBox="0 0 137 73" fill="none" xmlns="http://www.w3.org/2000/svg">
<g clip-path="url(#clip0_64_114)">
<path d="M38.7677 72.7547C38.0703 72.983 37.322 72.6025 37.1191 71.905C36.8909 71.2075 37.2713 70.4593 37.9688 70.2564C38.8185 69.9774 39.5413 69.4574 40.0486 68.836C40.4798 68.2907 40.7968 67.682 40.9236 67.0353C41.0758 66.4139 41.0504 65.8051 40.8729 65.2091C40.6954 64.6384 40.3276 64.1058 39.795 63.6619C38.996 63.0152 38.1971 62.7362 37.4996 62.7869C37.2713 62.7869 37.005 62.863 36.8021 62.9644C36.5992 63.0659 36.447 63.1927 36.2821 63.3703C35.9524 63.7507 35.7622 64.3721 35.8129 65.1457C35.8383 65.4754 35.8636 65.7164 35.889 65.9446C36.0158 67.4664 36.168 69.0009 35.293 70.3959C34.6462 71.4231 33.5175 72.1967 32.2874 72.5264C31.666 72.6786 31.0066 72.7547 30.3598 72.6786C29.6877 72.6279 29.0536 72.425 28.4576 72.0572C27.6079 71.5119 26.9104 70.6622 26.606 69.4575C26.3017 68.3541 26.3017 67.0353 26.5299 65.8305C26.7582 64.6004 27.2528 63.3829 27.9249 62.5079C28.3561 61.9372 29.1804 61.8358 29.7511 62.2796C30.3471 62.7489 30.4486 63.5605 30.0047 64.1312C29.5989 64.6765 29.2819 65.4374 29.1297 66.3124C28.9521 67.1621 28.9521 68.0371 29.155 68.76C29.2819 69.2799 29.5355 69.6096 29.8525 69.7872C30.0808 69.9394 30.3471 70.0154 30.6261 70.0408C30.9305 70.0662 31.2729 70.0408 31.6026 69.9394C32.2494 69.7872 32.782 69.4194 33.0737 68.9882C33.4795 68.3415 33.378 67.2382 33.2766 66.1856C33.2259 65.8559 33.2005 65.5135 33.2005 65.2852C33.099 63.7887 33.5049 62.5586 34.2531 61.6582C34.6335 61.189 35.1027 60.8339 35.6481 60.5803C36.168 60.3267 36.726 60.1745 37.3474 60.1111C38.6536 60.035 40.15 60.4915 41.4689 61.5821C42.4201 62.3811 43.0668 63.3576 43.3966 64.3848C43.7263 65.4374 43.7516 66.5407 43.5234 67.6059C43.2951 68.6331 42.8005 69.635 42.103 70.4847C41.2914 71.5119 40.1627 72.3108 38.7677 72.7547ZM41.5197 19.0605C42.9147 18.5406 44.1194 17.9572 45.1973 17.2851C44.2716 15.1546 43.8277 13.1382 43.8658 11.2867C43.8911 9.18151 44.4872 7.30462 45.5398 5.70673C46.6177 4.10884 48.1141 2.828 50.0164 1.85151C52.4513 0.621387 55.5456 -0.0253773 59.0711 -1.39946e-05C59.6418 0.0253493 60.1237 0.405799 60.3012 0.925747C61.3791 4.27371 61.6708 7.40608 61.2016 10.1073C60.8465 12.1871 60.0729 14.0386 58.8555 15.5097C57.6254 17.0061 56.0021 18.1348 54.0238 18.7815C52.0708 19.4029 49.7501 19.5805 47.125 19.1873C45.9963 19.9356 44.7281 20.6077 43.3205 21.191C43.8404 22.0914 44.1701 23.1187 44.297 24.2727C44.373 24.7039 44.373 25.1984 44.373 25.7184C44.3477 26.4666 43.7516 27.0246 43.0415 27.0246C42.94 26.9992 42.8639 26.9992 42.7878 26.9739V26.9992C36.1046 25.5789 33.0103 25.9213 27.8108 26.5047H27.7347C27.0118 26.6315 26.3397 26.0862 26.2636 25.3633C26.1875 24.6405 26.6948 23.9683 27.443 23.8922H27.5191C29.2692 23.6893 30.8163 23.5118 32.3001 23.423C31.945 22.028 31.5519 20.9755 29.6496 18.8703C28.9268 18.8957 28.2039 18.9718 27.4684 19.0478C26.7455 19.1493 26.0988 18.642 25.9973 17.8938C25.9212 17.171 26.4285 16.5242 27.1513 16.4227C28.7492 16.2452 30.3725 16.1437 31.9323 16.1945C34.9632 16.2452 37.8039 16.8159 39.9852 18.0206C40.5432 18.3377 41.0631 18.6801 41.5197 19.0605ZM47.3913 15.6618C47.9112 15.2307 48.3678 14.7361 48.837 14.2161C50.6631 12.1617 52.0328 9.58732 53.339 6.58177C53.6433 5.90964 54.4169 5.60528 55.089 5.90964C55.7612 6.18864 56.0655 6.96222 55.7612 7.63435C54.3408 10.8809 52.8824 13.6581 50.79 15.9662C50.5617 16.2198 50.3207 16.4861 50.0925 16.7398C51.2465 16.7144 52.2737 16.5622 53.1995 16.2452C54.6959 15.7506 55.9007 14.939 56.8011 13.823C57.7268 12.7197 58.3229 11.2993 58.6019 9.65073C58.9316 7.62166 58.7794 5.22483 58.0566 2.62509C55.3807 2.70118 53.0346 3.27185 51.1831 4.19762C49.712 4.94583 48.5326 5.94769 47.7337 7.15244C46.9347 8.33184 46.5036 9.72682 46.5036 11.2993C46.4909 12.6563 46.7699 14.102 47.3913 15.6618ZM24.4628 69.952C25.211 69.8506 25.8578 70.3832 25.9593 71.1061C26.0354 71.8289 25.5281 72.501 24.8052 72.5771C23.2073 72.7547 21.5841 72.8561 20.0242 72.8054C16.9933 72.7547 14.1526 72.184 11.9714 70.9793C9.59992 69.673 8.01471 67.6567 7.64695 64.7272C7.59622 64.296 7.59622 63.8014 7.59622 63.2815C7.62158 62.5586 8.21762 61.9753 8.92779 62.0006C9.00388 62.0006 9.10534 62.0006 9.18143 62.026C15.8647 63.4463 18.9336 63.0786 24.1585 62.4952H24.2346C24.9574 62.4191 25.6295 62.9264 25.7056 63.6492C25.7817 64.3721 25.2745 65.0442 24.5262 65.1203H24.4501C22.7001 65.3232 21.1529 65.5008 19.6692 65.5895C20.0242 66.9845 20.4174 68.0371 22.3196 70.1423C23.0298 70.1042 23.7527 70.0281 24.4628 69.952ZM16.9553 65.653C15.0277 65.6276 12.9732 65.4247 10.3735 64.9555C10.7286 66.6548 11.7685 67.8596 13.2522 68.6585C14.7487 69.5082 16.7017 69.9647 18.8829 70.1296C17.6781 68.4556 17.3865 67.3523 17.006 65.8559L16.9553 65.653ZM3.44932 59.8828C2.75183 59.6545 2.37138 58.8809 2.62501 58.2088C2.85328 57.5113 3.6015 57.1309 4.29899 57.3845C4.60335 57.486 5.04721 57.5621 5.50375 57.6635C5.85883 57.7142 6.2266 57.7903 6.63241 57.9171C7.3299 58.0947 7.76108 58.8175 7.55817 59.5404C7.38063 60.2379 6.63241 60.6437 5.93492 60.4662C5.70665 60.3901 5.33888 60.314 4.9838 60.2632C4.45117 60.1491 3.91854 60.0477 3.44932 59.8828ZM9.29556 61.2017C8.57271 61.0749 8.0908 60.4027 8.21762 59.6799C8.34444 58.957 9.01657 58.4751 9.73942 58.6019C12.0348 58.9824 14.419 59.2234 16.7397 59.2741C19.1873 59.2994 21.5714 59.1726 23.74 58.8683C24.4628 58.7668 25.135 59.2741 25.2364 59.9969C25.3379 60.7198 24.8306 61.3919 24.1077 61.4934C21.8377 61.7977 19.3014 61.9626 16.727 61.8992C14.2034 61.8485 11.6544 61.6075 9.29556 61.2017ZM23.6766 54.6706C24.3994 54.5438 25.0969 55.0257 25.2237 55.7486C25.3252 56.4714 24.8686 57.1436 24.1458 57.2704C20.671 57.8918 17.2216 58.0693 13.8102 57.841C10.3608 57.6128 6.96214 56.9914 3.6015 56.0403C3.52541 56.0403 3.44932 56.0149 3.39859 55.9642C1.92752 55.3428 0.951029 54.4424 0.443763 53.4405C0.152084 52.8952 -9.54977e-05 52.3245 -9.54977e-05 51.7285C-0.0254588 51.1578 0.101358 50.5745 0.329628 50.0291C0.798849 48.9258 1.74997 47.924 3.15764 47.2011C4.65407 46.4529 6.35342 46.25 8.04008 46.4783C9.63797 46.6812 11.2359 47.3026 12.6182 48.2283C14.0131 49.1541 15.1925 50.4096 15.9408 51.906C16.4861 52.9332 16.7904 54.0619 16.8412 55.2794C19.1112 55.254 21.3812 55.0511 23.6766 54.6706ZM13.9497 55.1779L14.2034 55.2033C14.1526 54.455 13.9497 53.7576 13.6073 53.1235C13.0367 52.0455 12.187 51.1198 11.1344 50.4223C10.1072 49.7248 8.90243 49.2682 7.68499 49.0907C6.5056 48.9385 5.33888 49.0653 4.3624 49.5853C3.51272 49.9911 2.96741 50.5364 2.73914 51.0817C2.66305 51.2846 2.61233 51.4875 2.61233 51.6778C2.61233 51.868 2.66305 52.0582 2.76451 52.2484C3.01814 52.743 3.53809 53.1742 4.3624 53.5293C7.54549 54.4043 10.754 54.975 13.9497 55.1779ZM2.59965 44.297C1.87679 44.2717 1.3188 43.6503 1.34416 42.9274C1.36952 42.2046 1.99093 41.6466 2.71378 41.6719C13.7722 42.1412 16.6256 45.375 18.5659 47.5943C19.3648 48.52 19.9608 49.1668 21.191 49.0653C21.3685 49.0653 21.4953 49.04 21.6602 48.9892C22.0914 48.8371 22.4338 48.4693 22.662 47.962C22.941 47.2645 23.0425 46.3388 22.9664 45.2101C22.8903 44.1575 22.6367 42.9781 22.1928 41.6846C21.9645 40.9871 22.3196 40.2389 23.0171 40.0106C23.7146 39.7824 24.4628 40.1374 24.6911 40.8349C25.211 42.3567 25.49 43.739 25.5915 45.0072C25.7183 46.5544 25.5408 47.9113 25.0716 48.9892C24.5516 50.2194 23.6766 51.0944 22.4718 51.4875C22.1421 51.6144 21.7743 51.6904 21.3939 51.7158C18.8449 51.9187 17.8937 50.8408 16.5875 49.3443C14.9262 47.4674 12.5294 44.7155 2.59965 44.297ZM1.02712 36.7895C0.595943 36.2188 0.672033 35.3691 1.26807 34.938C1.83875 34.4687 2.66305 34.5829 3.11959 35.1409C3.99463 36.2442 5.61788 37.246 7.52013 37.9182C9.39702 38.5903 11.5529 38.8946 13.5693 38.7171C16.2451 38.4381 18.7434 37.5631 20.5696 36.3964C22.2182 35.3691 23.2708 34.1644 23.2961 33.0991C23.2961 32.2241 22.7762 31.9958 21.9645 31.9958C21.2417 31.9958 20.2906 32.0973 19.238 32.2241C14.9135 32.744 9.00388 33.4035 4.13413 28.0265C3.63954 27.4811 3.6649 26.6315 4.21022 26.1749C4.75553 25.6804 5.6052 25.7057 6.0871 26.251C10.0438 30.6262 15.1672 30.0302 18.9209 29.599C20.0242 29.4722 21.0515 29.3454 21.9772 29.3707C24.4248 29.3961 25.9339 30.1697 25.9085 33.0991C25.8832 35.1282 24.3614 37.1065 22.0026 38.6283C19.8467 39.9979 16.9046 41.0252 13.8229 41.3295C11.4007 41.5578 8.8517 41.1773 6.64509 40.4038C4.27362 39.5921 2.24456 38.2859 1.02712 36.7895ZM13.2015 16.2579C13.899 16.0296 14.6472 16.4101 14.8501 17.1075C15.0784 17.805 14.698 18.5533 14.0005 18.7815C13.1254 19.0352 12.4279 19.5551 11.9207 20.2019C11.4895 20.7218 11.1724 21.3305 11.0203 21.9773C10.8935 22.5987 10.9188 23.2074 11.0964 23.8035C11.2739 24.3615 11.629 24.9068 12.1743 25.3633C12.9732 26.0101 13.7722 26.2637 14.4443 26.213C14.698 26.213 14.9643 26.1369 15.1672 26.0354C15.3447 25.9593 15.5223 25.8072 15.6871 25.6296C16.0168 25.2492 16.2071 24.6531 16.1563 23.8796C16.131 23.5245 16.1056 23.2835 16.0803 23.0552C15.9534 21.5334 15.8013 19.999 16.6763 18.604C17.2977 17.5768 18.4517 16.8032 19.6818 16.4735C20.3032 16.3213 20.9373 16.2706 21.5841 16.3213C22.2816 16.3974 22.9157 16.5749 23.5117 16.968C24.3614 17.488 25.0335 18.3377 25.3632 19.5678C25.6676 20.6711 25.6676 21.9646 25.4393 23.1694C25.211 24.4249 24.7165 25.6169 24.0443 26.492C23.6132 27.0627 22.7889 27.1641 22.1928 26.7202C21.6221 26.2891 21.5207 25.4394 21.9645 24.8687C22.3704 24.3234 22.6874 23.5625 22.8396 22.6875C22.9918 21.8632 23.0171 20.9628 22.8142 20.2399C22.6874 19.72 22.4338 19.3902 22.1167 19.2127C21.8885 19.0605 21.6221 18.9844 21.3431 18.9591C21.0388 18.9337 20.671 18.9591 20.3667 19.0605C19.7199 19.2127 19.1873 19.5805 18.8956 20.0116C18.4898 20.6584 18.5912 21.7617 18.6927 22.8143C18.7434 23.144 18.7688 23.4864 18.7688 23.7147C18.8702 25.2111 18.4644 26.4413 17.7162 27.3416C17.3357 27.8109 16.8665 28.166 16.3212 28.4196C15.8013 28.6986 15.2179 28.8254 14.6219 28.8888C13.2903 28.9649 11.8192 28.5084 10.5003 27.4177C9.5492 26.6188 8.90243 25.6677 8.57271 24.6151C8.24298 23.5879 8.21762 22.4846 8.44589 21.4193C8.67416 20.3667 9.16875 19.3649 9.86624 18.5152C10.6779 17.488 11.8065 16.7017 13.2015 16.2579ZM35.014 23.3596C36.9416 23.385 38.996 23.5879 41.5958 24.0825C41.2407 22.3831 40.2008 21.153 38.717 20.3541C37.2206 19.5044 35.2422 19.0732 33.0864 18.883C34.2911 20.557 34.5828 21.6603 34.9632 23.1567L35.014 23.3596ZM48.5199 29.1171C49.2174 29.3707 49.5979 30.1189 49.3443 30.8164C49.116 31.5139 48.3678 31.869 47.6703 31.6407C47.3659 31.5139 46.8967 31.4378 46.4655 31.3617C46.1104 31.2856 45.7427 31.2096 45.3368 31.1081C44.614 30.9052 44.2082 30.1823 44.4111 29.4848C44.5886 28.762 45.3115 28.3562 46.0343 28.5591C46.2372 28.6098 46.6304 28.6859 46.9855 28.762C47.5181 28.8634 48.0634 28.9649 48.5199 29.1171ZM42.7625 27.8362C43.4853 27.9884 43.9165 28.7113 43.739 29.4341C43.5868 30.1316 42.8639 30.5628 42.1411 30.4106C40.0359 29.8907 37.7913 29.637 35.5593 29.6117C33.0356 29.5609 30.5373 29.7638 28.28 30.157C27.5572 30.2584 26.885 29.7765 26.7582 29.0537C26.6314 28.3308 27.1133 27.6587 27.8362 27.5319C30.2584 27.1514 32.9088 26.9105 35.61 26.9612C37.9942 27.0119 40.4417 27.2656 42.7625 27.8362ZM28.3054 34.3419C27.5825 34.4687 26.885 34.0122 26.7582 33.2893C26.6314 32.5665 27.1133 31.869 27.8362 31.7422C31.3109 31.1208 34.7603 30.9686 38.1717 31.1715C41.5958 31.3998 45.0198 32.0212 48.3804 32.9723C48.4565 32.9977 48.5326 33.023 48.5834 33.0484C50.0544 33.6698 51.0309 34.5702 51.5128 35.572C51.7918 36.1174 51.944 36.7007 51.944 37.2714C51.9694 37.8674 51.8425 38.4254 51.6143 38.9707C51.145 40.074 50.1686 41.0759 48.7609 41.7987C47.2898 42.547 45.5905 42.7499 43.9038 42.547C42.3059 42.3187 40.708 41.6973 39.3257 40.7715C37.9308 39.8458 36.7514 38.5903 35.9778 37.0938C35.4578 36.0666 35.1535 34.9633 35.1027 33.7205C32.8581 33.7586 30.5881 33.9615 28.3054 34.3419ZM38.0195 33.8347L37.7659 33.8093C37.8166 34.5575 38.0195 35.2804 38.3619 35.9145C38.9072 36.9924 39.7823 37.8928 40.8095 38.5903C41.8621 39.2878 43.0795 39.7443 44.2843 39.9219C45.4637 40.074 46.6304 39.9472 47.6069 39.4273C48.4312 39.0215 49.0018 38.4761 49.2301 37.9308C49.3062 37.7279 49.3569 37.525 49.3569 37.3348C49.3316 37.1573 49.3062 36.9543 49.2048 36.7641C48.9511 36.2949 48.4312 35.8384 47.6069 35.4833C44.4111 34.5956 41.2153 34.0376 38.0195 33.8347ZM49.3696 44.7155C50.0925 44.7409 50.6505 45.3623 50.6251 46.0851C50.5997 46.8334 49.9783 47.3914 49.2555 47.366C38.1971 46.8968 35.3437 43.6376 33.4034 41.4183C32.6045 40.5179 32.0084 39.8458 30.7783 39.9472C30.6261 39.9472 30.4486 39.9979 30.3091 40.0233C29.8779 40.1755 29.5101 40.5433 29.3072 41.0759C29.0282 41.748 28.9268 42.6738 29.0029 43.8024C29.079 44.8804 29.358 46.1232 29.8272 47.4548C30.0554 48.1523 29.7004 48.9005 29.0029 49.1541C28.3054 49.3824 27.5572 49.0273 27.3289 48.3298C26.7836 46.7573 26.4792 45.3242 26.3778 44.0054C26.2509 42.4582 26.4285 41.1266 26.8723 40.0487C27.4177 38.8186 28.2673 37.9435 29.4721 37.525C29.8018 37.3982 30.1949 37.3221 30.5754 37.2968C33.1244 37.0938 34.0755 38.1972 35.3817 39.6682C37.043 41.5451 39.4399 44.297 49.3696 44.7155ZM50.9421 52.2231C51.3733 52.8191 51.2972 53.6434 50.7139 54.1C50.1432 54.5311 49.3189 54.455 48.8623 53.8717C47.9873 52.7684 46.3641 51.7665 44.4618 51.0944C42.5849 50.4476 40.429 50.1179 38.4127 50.3208C35.7368 50.5745 33.2385 51.4495 31.387 52.6162C29.7638 53.6434 28.7112 54.8482 28.6858 55.9388C28.6858 56.7885 29.2058 57.0167 30.0174 57.0167C30.7403 57.0167 31.6914 56.9153 32.744 56.7885C37.0684 56.2939 42.9781 55.6091 47.8478 60.9861C48.3424 61.5314 48.279 62.3811 47.7464 62.863C47.2264 63.3576 46.3767 63.2942 45.8948 62.7615C41.9382 58.3864 36.8148 58.9824 33.061 59.4136C31.9323 59.5658 30.9305 59.6672 30.0047 59.6672C27.5572 59.6418 26.048 58.8429 26.0734 55.9134C26.0988 53.8844 27.6206 51.906 29.9794 50.3842C32.1352 49.0146 35.052 47.9874 38.159 47.7084C40.5812 47.4548 43.0922 47.8352 45.3368 48.6088C47.6956 49.4458 49.7247 50.7266 50.9421 52.2231Z" fill="#F7A808"/>
<path fill-rule="evenodd" clip-rule="evenodd" d="M81.3782 31.9578C82.4561 31.9578 83.3565 32.8328 83.3565 33.9361C83.3565 35.0394 82.4561 35.9144 81.3782 35.9144C80.2749 35.9144 79.3998 35.0394 79.3998 33.9361C79.3998 32.8328 80.2749 31.9578 81.3782 31.9578Z" fill="black"/>
<path d="M75.7729 37.0432H75.8237C76.0519 37.0432 76.2929 37.0939 76.4958 37.17L76.5212 37.1954H76.5465H76.5719L76.5973 37.2207L76.648 37.2461L76.6733 37.2715L76.6987 37.2968H76.7241L76.7748 37.3222L76.8002 37.3476L76.8255 37.3729L76.8509 37.3983L76.8763 37.4236L76.927 37.449L76.9523 37.4744L76.9777 37.4997L77.0031 37.5251L77.0284 37.5505L77.0538 37.5758L77.0792 37.6266L77.1045 37.6519L77.1299 37.6773L77.1552 37.7026V37.728L77.1806 37.7787L77.206 37.8041L77.2313 37.8295L77.2567 37.8802V37.9056L77.2821 37.9309L77.3074 37.9816C77.3835 38.1845 77.4342 38.3875 77.4342 38.6538V38.6791V48.3552V56.5096C77.4342 57.4099 76.7114 58.1328 75.811 58.1328C74.9106 58.1328 74.1877 57.4099 74.1877 56.5096V49.9785H66.6548V56.5096C66.6548 57.4099 65.932 58.1328 65.0316 58.1328C64.1312 58.1328 63.4083 57.4099 63.4083 56.5096V45.654C63.4083 45.6287 63.4083 45.578 63.4083 45.5526C63.4083 45.5272 63.4083 45.5019 63.4083 45.4511C63.4083 43.1304 64.3595 41.0252 65.8813 39.5034C67.4031 37.9563 69.5082 37.0305 71.8543 37.0305H71.8797H75.7729V37.0432ZM71.8289 40.2897C70.4086 40.2897 69.1278 40.8857 68.1766 41.8115C67.2509 42.7373 66.6548 44.0435 66.6548 45.4638C66.6548 45.4892 66.6548 45.5399 66.6548 45.5653C66.6548 45.5906 66.6548 45.6414 66.6548 45.6667V46.7447H74.1877V40.2897H71.8416H71.8289Z" fill="black"/>
<path d="M99.437 38.6665C99.437 37.7661 100.16 37.0432 101.06 37.0432C101.961 37.0432 102.683 37.7661 102.683 38.6665V51.272C102.683 51.3481 102.683 51.4242 102.658 51.4749C102.683 51.551 102.683 51.6018 102.683 51.6779C102.683 52.5529 103.039 53.3772 103.635 53.9479V53.9732C104.205 54.5439 104.966 54.899 105.867 54.899H105.892H107.262C108.162 54.899 108.885 55.6218 108.885 56.5222C108.885 57.4226 108.162 58.1455 107.262 58.1455H105.955H105.892C104.116 58.1455 102.493 57.4226 101.314 56.2432V56.2686C100.16 55.0892 99.437 53.466 99.437 51.6905C99.437 51.6144 99.437 51.5637 99.437 51.4876C99.437 51.4369 99.437 51.3608 99.437 51.2847V38.6665Z" fill="black"/>
<path d="M110.369 38.6665C110.369 37.7661 111.091 37.0432 111.992 37.0432C112.892 37.0432 113.615 37.7661 113.615 38.6665V51.272C113.615 51.3481 113.615 51.4242 113.59 51.4749C113.615 51.551 113.615 51.6018 113.615 51.6779C113.615 52.5529 113.97 53.3772 114.566 53.9479V53.9732C115.137 54.5439 115.936 54.899 116.836 54.899C117.737 54.899 118.536 54.5439 119.132 53.9479C119.702 53.3772 120.083 52.5529 120.083 51.6779C120.083 51.6018 120.083 51.551 120.083 51.4749C120.083 51.4242 120.083 51.3481 120.083 51.272V38.6665C120.083 37.7661 120.806 37.0432 121.706 37.0432C122.581 37.0432 123.329 37.7661 123.329 38.6665V51.272C123.329 51.3481 123.329 51.4242 123.304 51.4749C123.329 51.551 123.329 51.6018 123.329 51.6779C123.329 53.4533 122.606 55.0765 121.427 56.2559C120.273 57.41 118.65 58.1328 116.849 58.1328C115.073 58.1328 113.45 57.41 112.271 56.2306V56.2559C111.117 55.0765 110.394 53.4533 110.394 51.6779C110.394 51.6018 110.394 51.551 110.394 51.4749C110.394 51.4242 110.394 51.3481 110.394 51.272V38.6665H110.369Z" fill="black"/>
<path d="M134.21 37.0432C135.085 37.0432 135.833 37.7661 135.833 38.6665C135.833 39.5669 135.085 40.2897 134.21 40.2897H131.255C131.179 40.2897 131.128 40.2897 131.078 40.2644C131.002 40.2897 130.951 40.2897 130.9 40.2897C130.101 40.2897 129.378 40.5941 128.871 41.114C128.351 41.634 128.047 42.3441 128.047 43.1431C128.047 43.9167 128.351 44.6395 128.871 45.1468C129.391 45.6667 130.101 45.9711 130.9 45.9711H130.951C132.6 45.9965 134.121 46.6686 135.199 47.7719C136.303 48.8498 137 50.397 137 52.071C137 53.745 136.303 55.2668 135.199 56.3701V56.3954C134.096 57.4987 132.574 58.1709 130.9 58.1709C130.824 58.1709 130.773 58.1709 130.723 58.1709C130.647 58.1709 130.596 58.1709 130.545 58.1709H126.424C125.523 58.1709 124.8 57.448 124.8 56.5476C124.8 55.6472 125.523 54.9244 126.424 54.9244H130.545C130.596 54.9244 130.647 54.9244 130.723 54.9244C130.773 54.9244 130.824 54.9244 130.9 54.9244C131.674 54.9244 132.397 54.5946 132.904 54.1V54.0747C133.424 53.5801 133.728 52.8699 133.728 52.071C133.728 51.2974 133.424 50.5745 132.904 50.0673C132.384 49.5473 131.674 49.2176 130.9 49.2176H130.849C129.175 49.2176 127.679 48.5201 126.576 47.4422C125.472 46.3389 124.8 44.8171 124.8 43.1431C124.8 41.4438 125.472 39.922 126.576 38.8186C127.679 37.7153 129.226 37.0432 130.9 37.0432C130.951 37.0432 131.002 37.0432 131.078 37.0432C131.128 37.0432 131.179 37.0432 131.255 37.0432H134.21Z" fill="black"/>
<path d="M88.6068 56.5222C88.6068 57.4226 87.8585 58.1455 86.9582 58.1455C86.0831 58.1455 85.3349 57.4226 85.3349 56.5222V48.3679V38.6665C85.3349 37.7661 86.0831 37.0432 86.9582 37.0432H91.8152C93.5907 37.0432 95.2139 37.7661 96.3933 38.9201V38.9455C97.5473 40.0995 98.2956 41.7227 98.2956 43.4982C98.2956 45.2736 97.5473 46.8969 96.3933 48.0763C95.2139 49.2557 93.5907 49.9785 91.8152 49.9785H88.5941V56.5222H88.6068ZM91.8152 40.2897H88.5941V46.7447H91.8152C92.7156 46.7447 93.5146 46.3642 94.1106 45.7936C94.6813 45.1975 95.0364 44.3986 95.0364 43.4982C95.0364 42.5978 94.6813 41.7988 94.1106 41.2282V41.2155C93.5146 40.6448 92.7156 40.2897 91.8152 40.2897Z" fill="black"/>
<path d="M83.1791 38.6665C83.1791 37.7661 82.4562 37.0432 81.5558 37.0432C80.6554 37.0432 79.9326 37.7661 79.9326 38.6665V46.7447V49.0908V56.5222C79.9326 57.4226 80.6554 58.1455 81.5558 58.1455C82.4562 58.1455 83.1791 57.4226 83.1791 56.5222V49.0908V46.7447V38.6665Z" fill="black"/>
</g>
<defs>
<clipPath id="clip0_64_114">
<rect width="137" height="72.8181" fill="white"/>
</clipPath>
</defs>
</svg>
